PathFileType	4	(X/Y/Z)	c:/Users/goper/Files/vsCode/490R/osim_files/C05/C05_Fast_06.trc
DataRate	CameraRate	NumFrames	NumMarkers	Units                	OrigDataRate	OrigDataStartFrame	OrigNumFrames
250.00	250.00	10	36	mm	250.0	1521	2432
                Frame#	Time	LPSIS			LASIS			LTH1			LTH2			LTH3			LTH4			LLFE			LMFE			LSH1			LSH2			LSH3			LSH4			LLMAL			LMMAL			LCAL			LMTP5			LTOE			LMTP1			RPSIS			RASIS			RTH1			RTH2			RTH3			RTH4			RLFE			RMFE			RSH1			RSH2			RSH3			RSH4			RLMAL			RMMAL			RCAL			RMTP1			RTOE			RMTP5		
		X1	Y1	Z1	X2	Y2	Z2	X3	Y3	Z3	X4	Y4	Z4	X5	Y5	Z5	X6	Y6	Z6	X7	Y7	Z7	X8	Y8	Z8	X9	Y9	Z9	X10	Y10	Z10	X11	Y11	Z11	X12	Y12	Z12	X13	Y13	Z13	X14	Y14	Z14	X15	Y15	Z15	X16	Y16	Z16	X17	Y17	Z17	X18	Y18	Z18	X19	Y19	Z19	X20	Y20	Z20	X21	Y21	Z21	X22	Y22	Z22	X23	Y23	Z23	X24	Y24	Z24	X25	Y25	Z25	X26	Y26	Z26	X27	Y27	Z27	X28	Y28	Z28	X29	Y29	Z29	X30	Y30	Z30	X31	Y31	Z31	X32	Y32	Z32	X33	Y33	Z33	X34	Y34	Z34	X35	Y35	Z35	X36	Y36	Z36

1521	6.08000	-1210.69250	1058.91467	336.49948	-1410.05457	1023.29602	396.25085	-1291.67664	708.31873	437.37177	-1298.19348	646.47107	426.07520	-1367.94751	710.93707	430.98340	-1364.41602	650.03467	420.41788	-1329.44653	541.80890	400.31683	-1320.87122	538.28918	282.96545	-1214.26917	373.99310	397.79123	-1213.97131	330.41431	390.33572	-1276.85889	364.53323	409.90344	-1266.26270	323.50244	399.78458	-1210.54163	104.88725	349.43637	-1240.57190	118.91955	268.76282	-1151.78394	80.01643	295.60349	-1345.43665	42.19731	382.54489	-1386.82117	65.58867	323.47794	-1374.70142	54.52389	273.46658	-1213.46240	1057.85425	227.47635	-1403.70166	1024.02979	167.54346	-1430.77112	683.50635	112.72173	-1470.09814	635.74139	125.49883	-1492.66907	723.89069	108.82596	-1524.17603	671.11438	119.77751	0.00000	0.00000	0.00000	-1546.28064	574.39679	139.64647	-1432.61169	449.61307	123.58142	-1420.67505	402.55920	126.44330	-1488.50940	426.18600	123.07073	-1469.54028	383.67215	127.05334	-1353.08252	175.03133	154.91534	-1383.06714	173.27498	238.67693	-1285.43970	161.72389	207.66483	-1481.03674	66.14522	217.83797	-1503.69287	87.99309	169.50085	-1445.07874	73.00590	110.33994
1522	6.08400	-1215.52539	1058.90991	336.12448	-1415.26331	1023.15240	396.61209	-1294.36707	708.66895	437.33630	-1300.49207	646.80768	426.18668	-1370.61438	710.80896	431.26108	-1366.69739	649.89349	420.78220	-1330.82117	541.89880	400.83554	-1322.87537	538.06787	283.31259	-1214.90967	374.48959	397.91589	-1214.63770	330.61676	390.22403	-1277.58557	364.74997	410.15118	-1266.80261	323.71851	399.95047	-1210.79419	105.14384	349.50598	-1240.75598	119.09361	268.80917	-1151.93494	80.40186	295.68927	-1345.43237	42.17467	382.56937	-1386.88489	65.47099	323.52521	-1374.74060	54.38406	273.56265	-1218.82642	1057.84875	227.08534	-1409.28125	1024.02820	167.87099	-1437.79712	684.01556	112.65951	-1477.30957	636.38696	125.69594	-1499.50085	724.67438	109.22744	-1531.20361	672.05188	120.34937	0.00000	0.00000	0.00000	-1553.41138	575.42053	140.11934	-1442.31311	447.63226	123.49858	-1431.46533	400.35461	126.35231	-1498.48572	425.32462	123.19684	-1481.13684	382.47385	127.37526	-1369.77722	171.13268	155.01912	-1399.86450	170.11446	238.80394	-1302.24036	156.10252	207.98630	-1500.60486	65.56054	217.86241	-1522.57104	88.04339	169.26335	-1464.40686	71.69965	110.35865
1523	6.08800	-1220.74292	1058.87476	335.63879	-1420.24304	1022.90771	396.91873	-1296.93530	709.03125	437.30948	-1302.72498	647.14484	426.36963	-1373.19885	710.60620	431.50739	-1368.83508	649.67236	421.07974	-1332.15247	541.86261	401.29532	-1324.91394	537.82977	283.65665	-1215.72290	374.88068	398.02744	-1215.25000	330.79337	389.88898	-1278.36829	364.91156	410.32806	-1267.43457	323.98102	400.18811	-1210.99219	105.36768	349.60135	-1240.99951	119.31693	268.86646	-1152.09290	80.73573	295.73215	-1345.46423	42.13065	382.62204	-1386.97351	65.21556	323.46555	-1374.79102	54.28067	273.54346	-1224.36890	1057.76001	226.69392	-1414.92334	1024.00281	168.20587	-1444.66528	684.41949	112.57364	-1484.45325	637.01587	125.91595	-1507.53430	725.82770	109.32230	-1538.16284	672.86096	120.92416	0.00000	0.00000	0.00000	-1560.51416	576.29468	140.66147	-1452.05798	445.28183	123.64797	-1442.33044	398.05460	126.31031	-1509.40320	424.69193	124.29048	-1492.40918	381.54697	127.62083	-1386.57922	167.24579	155.20667	-1416.78442	167.01382	238.98683	-1319.82166	150.13457	208.00160	-1520.21777	65.10732	217.81650	-1541.41248	88.33372	169.25961	-1483.85095	70.54362	110.38892
1524	6.09200	-1225.98267	1058.75439	335.14621	-1425.20667	1022.59705	397.27646	-1299.55920	709.38574	437.31024	-1305.07068	647.41388	426.48401	-1375.81470	710.44635	431.66425	-1371.09595	649.44556	421.38391	-1333.49402	541.90179	401.73837	-1326.91516	537.52533	283.96698	-1216.58582	375.27686	398.09872	-1215.78833	331.31082	390.18076	-1279.20044	365.09479	410.54816	-1267.99915	324.16693	400.38019	-1211.18481	105.57640	349.66663	-1241.28662	119.53101	268.88776	-1152.18970	81.06493	295.79160	-1345.45667	42.06224	382.64902	-1387.07471	65.06350	323.52927	-1374.90039	54.16608	273.65347	-1229.85901	1057.63745	226.29529	-1420.51843	1023.79681	168.54633	-1451.54480	684.75531	112.54076	-1491.36670	637.52386	126.07513	-1513.06250	725.87549	109.96980	-1545.15735	673.54150	121.55871	0.00000	0.00000	0.00000	-1567.46350	577.03265	141.11264	-1461.34082	443.24139	123.44531	-1453.23291	395.63297	126.29840	-1519.59680	424.04001	124.49068	-1503.62378	380.48871	127.83144	-1403.23743	163.57141	155.27434	-1433.92969	163.79358	239.35703	-1337.21924	144.50761	208.24428	-1539.83276	64.87174	217.86786	-1560.45264	88.73660	169.44626	-1503.29077	69.48839	110.42009
1525	6.09600	-1231.23279	1058.58850	334.69086	-1430.15454	1022.22046	397.60355	-1302.29236	709.67462	437.30890	-1307.49902	647.66614	426.59811	-1378.53528	710.20508	431.89001	-1373.50439	649.32361	421.68655	-1335.03979	541.92017	402.19308	-1328.90881	537.27081	284.25513	-1217.38379	375.72116	398.20874	-1216.45874	331.90985	390.49048	-1279.51343	365.43124	410.63049	-1268.59363	324.40140	400.52179	-1211.40320	105.81004	349.73557	-1241.65466	119.73827	268.83862	-1152.40942	81.44389	295.82800	-1345.51550	42.01582	382.67960	-1387.20203	64.92487	323.58664	-1374.90967	54.04400	273.68094	-1235.41138	1057.42932	225.90878	-1426.18616	1023.70416	168.82932	-1458.31775	685.00421	112.54272	-1498.06140	637.88623	126.30508	-1520.98877	726.86536	110.03613	-1551.76477	674.06757	122.09850	0.00000	0.00000	0.00000	-1574.16101	577.63763	141.54860	-1470.85413	440.98886	123.36908	-1464.09863	393.15497	126.30834	-1529.69153	423.28854	124.71642	-1514.80396	379.32626	128.06485	-1420.31592	159.92784	155.60977	-1450.87976	160.80449	239.60626	-1354.80139	138.93193	208.39655	-1559.26575	64.59467	217.92744	-1579.51306	89.26522	169.68364	-1523.02893	68.60583	110.69643
1526	6.10000	-1236.65125	1058.31934	334.21649	-1435.31543	1021.87000	397.86609	-1305.13501	709.86633	437.31943	-1309.87378	647.81024	426.63867	-1381.36169	709.96033	432.03708	-1375.95215	649.10809	421.94266	-1336.61816	541.99481	402.69058	-1330.99475	536.99750	284.50504	-1218.30322	376.13739	398.19318	-1217.28760	332.12561	390.35349	-1280.40283	365.65912	410.79990	-1269.50269	324.57523	400.52472	-1211.71777	106.04681	349.79141	-1241.96472	119.98927	268.87708	-1152.59924	81.83549	295.84402	-1345.58862	41.95456	382.72202	-1387.42383	64.86739	323.79108	-1375.12134	54.17382	273.91077	-1241.18591	1057.14233	225.49666	-1431.92273	1023.49146	169.08438	-1465.19739	685.11627	112.75552	-1504.73474	638.20691	126.50147	-1527.48560	727.18604	110.37907	-1558.38965	674.46979	122.57822	0.00000	0.00000	0.00000	-1580.72375	578.08527	141.98373	-1480.55237	438.55463	123.30260	-1474.95190	390.60913	126.33611	-1539.69031	422.49796	124.92688	-1525.95142	378.16354	128.32826	-1437.47180	156.31001	155.82367	-1467.96814	157.92915	239.82666	-1372.44299	133.53403	208.64145	-1578.93909	64.78164	218.23444	-1598.44800	90.02010	169.99295	-1542.36121	68.00526	110.84177
1527	6.10400	-1242.16748	1058.02893	333.72678	-1440.35046	1021.38019	398.17490	-1307.88281	710.07849	437.32364	-1312.34937	648.03485	426.73111	-1384.09619	709.66315	432.16107	-1378.33728	648.88708	422.18097	-1338.11487	541.82935	402.68039	-1333.03589	536.70905	284.84412	-1219.19055	376.58649	398.17667	-1218.13196	332.47076	390.43433	-1281.22913	365.85083	410.92902	-1270.05896	324.95590	400.84720	-1212.01135	106.33422	349.82504	-1242.26379	120.22353	268.88348	-1152.78564	82.23419	295.82861	-1345.38794	42.01581	382.80048	-1387.54163	64.78969	323.86618	-1375.32654	54.30817	274.20419	-1246.70068	1056.86890	225.07883	-1437.65259	1023.23315	169.36731	-1471.67896	685.16711	112.69648	-1511.23083	638.32330	126.74378	-1533.90637	727.36188	110.61775	-1564.89404	674.73669	123.06952	0.00000	0.00000	0.00000	-1587.10291	578.39301	142.37822	-1490.08716	436.08362	123.20515	-1486.33618	387.77863	126.48685	-1549.66187	421.68787	125.07447	-1537.05225	377.00729	128.53806	-1454.65393	152.82944	156.09241	-1485.05310	155.19963	240.12782	-1390.47998	128.17320	208.75308	-1598.64563	65.16042	218.55833	-1617.43542	90.99810	170.37859	-1561.94727	67.55469	111.11549
1528	6.10800	-1247.25208	1057.78528	333.23349	-1445.44312	1020.97455	398.44083	-1310.66638	710.27234	437.24841	-1314.72668	648.22229	426.77081	-1386.85059	709.41821	432.27020	-1380.70093	648.60022	422.35419	-1339.78699	541.79706	402.92932	-1335.15881	536.44147	285.06693	-1220.05798	377.05466	398.13681	-1218.88208	332.99786	390.52820	-1281.98730	366.03299	411.05582	-1270.64343	325.14719	400.97916	-1212.28979	106.61031	349.80753	-1242.51550	120.43015	268.87503	-1152.93188	82.66709	295.78381	-1345.59204	41.93914	382.79633	-1387.65894	64.54458	323.76111	-1375.14319	54.04797	274.26218	-1252.32629	1056.51758	224.63998	-1443.35217	1022.92126	169.54680	-1477.99487	685.17285	112.67140	-1517.73645	638.36218	126.97427	-1540.35205	727.41907	110.97949	-1571.32019	674.78491	123.60249	0.00000	0.00000	0.00000	-1593.44690	578.53088	142.72180	-1499.45459	433.62198	123.16535	-1496.61389	385.44403	126.32397	-1559.49072	420.79611	125.21136	-1548.08997	375.79031	128.73465	-1471.87939	149.56799	156.31210	-1502.11938	152.65044	240.39151	-1408.72095	122.83447	209.51747	-1618.11536	65.81337	218.53329	-1636.24243	92.08233	170.76599	-1581.50110	67.21049	111.39735
1529	6.11200	-1252.72278	1057.42444	332.74771	-1450.54150	1020.42963	398.70926	-1313.42627	710.44904	437.23285	-1317.17151	648.34930	426.78436	-1389.65845	709.14722	432.40204	-1383.06799	648.27740	422.53680	-1341.37610	541.74847	403.25711	-1337.20337	536.17487	285.34079	-1220.93994	377.55399	398.18600	-1219.41357	333.36493	390.46558	-1282.82153	366.26425	411.19196	-1271.29541	325.37170	401.08911	-1212.54492	106.88938	349.79385	-1242.77869	120.65084	268.89270	-1153.09875	83.06267	295.74713	-1345.61670	41.89975	382.81113	-1387.66003	64.55888	323.79788	-1374.66650	53.46886	273.96661	-1258.02124	1056.16333	224.22560	-1449.10022	1022.52094	169.75641	-1484.30408	684.98517	112.72419	-1523.91479	638.29449	127.22009	-1546.52954	727.30597	111.27979	-1577.58716	674.78290	124.01859	0.00000	0.00000	0.00000	-1599.58508	578.54944	143.11241	-1508.92371	431.12140	123.21764	-1507.27039	382.88321	126.35054	-1569.19958	419.95175	125.39034	-1559.02771	374.62189	128.92734	-1489.34436	146.26573	156.62949	-1519.04993	150.34322	240.60789	-1426.55481	117.93217	209.60010	-1637.65747	66.63380	218.91344	-1655.14648	93.38849	171.23033	-1601.09985	67.09389	111.79079
1530	6.11600	-1257.74902	1057.17676	332.28818	-1455.65088	1019.90369	398.94919	-1316.20288	710.60846	437.16815	-1319.60608	648.43890	426.77057	-1392.50647	708.81000	432.46884	-1385.48596	648.04315	422.64951	-1343.10608	541.67151	403.46875	-1339.30310	535.89819	285.58884	-1221.83350	377.99167	398.15240	-1220.39099	333.74661	390.05490	-1283.71558	366.46509	411.25891	-1272.15186	325.64206	401.17218	-1212.82410	107.19067	349.77509	-1243.08521	120.89023	268.83716	-1153.25525	83.44666	295.69482	-1345.63513	41.88342	382.79535	-1387.65747	64.42899	323.76947	-1374.97144	53.62189	273.84216	-1263.61768	1055.75586	223.83630	-1454.70032	1022.04559	169.79745	-1490.42590	684.72504	112.72530	-1529.93628	638.07349	127.54588	-1552.61377	727.08551	111.51006	-1583.61182	674.54803	124.54202	0.00000	0.00000	0.00000	-1605.56055	578.41040	143.40028	-1518.33252	428.54758	123.33069	-1517.91370	380.31259	126.43356	-1578.76221	419.03665	125.57917	-1569.81506	373.49536	129.09950	-1506.67432	143.30730	156.83199	-1536.51477	147.98451	241.08746	-1444.62952	113.24507	209.81427	-1657.09534	67.73314	219.42296	-1673.89807	94.90310	171.76263	-1620.69861	67.22190	112.22934
